# Exported from Wings 3D 2.2.5
mtllib lamp.mtl
o Cube3
#16 vertices, 28 faces
v -0.10000000 -1.00000000 -0.10000000
v -0.10000000 -1.00000000 0.10000000
v -0.10000000 1.00000000 -0.10000000
v -0.10000000 1.00000000 0.10000000
v 0.10000000 -1.00000000 -0.10000000
v 0.10000000 -1.00000000 0.10000000
v 0.10000000 1.00000000 -0.10000000
v 0.10000000 1.00000000 0.10000000
v -0.30000000 1.00000000 -0.30000000
v -0.30000000 1.00000000 0.30000000
v -0.30000000 1.60000000 -0.30000000
v -0.30000000 1.60000000 0.30000000
v 0.30000000 1.00000000 -0.30000000
v 0.30000000 1.00000000 0.30000000
v 0.30000000 1.60000000 -0.30000000
v 0.30000000 1.60000000 0.30000000
vn 0.0000000e+0 -1.00000000 0.0000000e+0
vn 0.0000000e+0 0.0000000e+0 -1.00000000
vn -1.00000000 0.0000000e+0 0.0000000e+0
vn 0.0000000e+0 -1.00000000 0.0000000e+0
vn 0.0000000e+0 0.0000000e+0 1.00000000
vn -1.00000000 0.0000000e+0 0.0000000e+0
vn 0.0000000e+0 -1.00000000 0.0000000e+0
vn 0.0000000e+0 0.0000000e+0 1.00000000
vn -1.00000000 0.0000000e+0 0.0000000e+0
vn 0.0000000e+0 0.0000000e+0 -1.00000000
vn -1.00000000 0.0000000e+0 0.0000000e+0
vn 0.0000000e+0 -1.00000000 3.4694470e-16
vn 0.0000000e+0 -1.00000000 3.4694470e-16
vn 0.0000000e+0 -1.00000000 3.4694470e-16
vn 0.0000000e+0 -1.00000000 3.4694470e-16
vn 0.0000000e+0 0.0000000e+0 -1.00000000
vn -1.00000000 0.0000000e+0 0.0000000e+0
vn -1.00000000 0.0000000e+0 0.0000000e+0
vn 0.0000000e+0 -1.00000000 -6.9388939e-16
vn 0.0000000e+0 -1.00000000 -6.9388939e-16
vn 0.0000000e+0 0.0000000e+0 1.00000000
vn 0.0000000e+0 -1.00000000 0.0000000e+0
vn 0.0000000e+0 0.0000000e+0 -1.00000000
vn 1.00000000 0.0000000e+0 0.0000000e+0
vn 0.0000000e+0 -1.00000000 0.0000000e+0
vn 1.00000000 0.0000000e+0 0.0000000e+0
vn 0.0000000e+0 0.0000000e+0 -1.00000000
vn 0.0000000e+0 -1.00000000 0.0000000e+0
vn 0.0000000e+0 0.0000000e+0 1.00000000
vn 1.00000000 0.0000000e+0 0.0000000e+0
vn 0.0000000e+0 0.0000000e+0 -1.00000000
vn 1.00000000 0.0000000e+0 0.0000000e+0
vn 0.0000000e+0 -1.00000000 6.9388939e-16
vn 0.0000000e+0 -1.00000000 6.9388939e-16
vn 0.0000000e+0 0.0000000e+0 1.00000000
vn 1.00000000 0.0000000e+0 0.0000000e+0
vn 0.0000000e+0 -1.00000000 -3.4694470e-16
vn 0.0000000e+0 -1.00000000 -3.4694470e-16
vn 1.00000000 0.0000000e+0 0.0000000e+0
vn 0.0000000e+0 -1.00000000 -3.4694470e-16
vn 0.0000000e+0 -1.00000000 -3.4694470e-16
vn 0.0000000e+0 0.0000000e+0 1.00000000
vn 0.0000000e+0 -1.00000000 0.0000000e+0
vn -1.00000000 0.0000000e+0 0.0000000e+0
vn 0.0000000e+0 0.0000000e+0 -1.00000000
vn 0.0000000e+0 -1.00000000 0.0000000e+0
vn 0.0000000e+0 0.0000000e+0 1.00000000
vn -1.00000000 0.0000000e+0 0.0000000e+0
vn 0.0000000e+0 -1.00000000 -3.4694470e-16
vn 0.0000000e+0 -1.00000000 -3.4694470e-16
vn 0.0000000e+0 0.0000000e+0 1.00000000
vn 0.0000000e+0 -1.00000000 -3.4694470e-16
vn -1.00000000 0.0000000e+0 0.0000000e+0
vn 0.0000000e+0 -1.00000000 -3.4694470e-16
vn 0.0000000e+0 1.00000000 0.0000000e+0
vn 0.0000000e+0 0.0000000e+0 -1.00000000
vn -1.00000000 0.0000000e+0 0.0000000e+0
vn -1.00000000 0.0000000e+0 0.0000000e+0
vn 0.0000000e+0 1.00000000 0.0000000e+0
vn 0.0000000e+0 0.0000000e+0 -1.00000000
vn -1.00000000 0.0000000e+0 0.0000000e+0
vn 0.0000000e+0 0.0000000e+0 1.00000000
vn 0.0000000e+0 1.00000000 0.0000000e+0
vn 0.0000000e+0 0.0000000e+0 -1.00000000
vn 1.00000000 0.0000000e+0 0.0000000e+0
vn 0.0000000e+0 -1.00000000 3.4694470e-16
vn 0.0000000e+0 -1.00000000 3.4694470e-16
vn 0.0000000e+0 -1.00000000 3.4694470e-16
vn 1.00000000 0.0000000e+0 0.0000000e+0
vn 0.0000000e+0 0.0000000e+0 -1.00000000
vn 0.0000000e+0 -1.00000000 3.4694470e-16
vn 0.0000000e+0 0.0000000e+0 1.00000000
vn 0.0000000e+0 -1.00000000 0.0000000e+0
vn 1.00000000 0.0000000e+0 0.0000000e+0
vn 0.0000000e+0 -1.00000000 0.0000000e+0
vn 0.0000000e+0 1.00000000 0.0000000e+0
vn 0.0000000e+0 0.0000000e+0 -1.00000000
vn 1.00000000 0.0000000e+0 0.0000000e+0
vn 0.0000000e+0 1.00000000 0.0000000e+0
vn 0.0000000e+0 0.0000000e+0 1.00000000
vn 1.00000000 0.0000000e+0 0.0000000e+0
vn 1.00000000 0.0000000e+0 0.0000000e+0
vn 0.0000000e+0 0.0000000e+0 1.00000000
vn 0.0000000e+0 1.00000000 0.0000000e+0
g Cube3
usemtl default
s 1
f 2//9 3//17 1//3
f 4//18 3//11 2//6
f 5//26 8//39 6//30
f 7//32 8//36 5//24
f 10//51 16//83 12//62
f 11//60 13//70 9//45
f 14//72 16//80 10//47
f 15//77 13//64 11//56
s 2
f 1//1 5//25 2//7
f 2//4 5//22 6//28
f 10//53 11//58 9//44
f 12//61 11//57 10//48
f 13//69 16//82 14//74
f 15//78 16//81 13//65
s 3
f 2//8 8//42 4//21
f 3//16 5//27 1//2
f 6//29 8//35 2//5
f 7//31 5//23 3//10
f 11//55 16//79 15//76
f 12//63 16//84 11//59
s 4
f 3//13 13//66 7//33
f 4//20 10//52 3//14
f 7//34 13//68 8//40
f 8//38 10//50 4//19
f 9//43 3//12 10//49
f 10//54 8//41 14//75
f 13//71 3//15 9//46
f 14//73 8//37 13//67
